<svg width="95" height="32" viewBox="0 0 95 32" fill="none" xmlns="http://www.w3.org/2000/svg">
<path d="M26.9788 5.8353L26.7153 9.98118H28.9035L24.5694 17.3788H30.1929L33.4024 10.8424L34.5835 17.3788H40.2071L37.8918 9.98118H40.6871L41.0071 5.8353H26.9788Z" fill="white"/>
<path d="M46.0188 9.98118H50.2447L50.4565 5.8353H42.3247L41.6282 17.3788H45.5812L46.0188 9.98118Z" fill="white"/>
<path d="M39.5529 18.6541C38.5959 18.6532 37.6602 18.9361 36.864 19.4671C36.0678 19.9981 35.4471 20.7533 35.0802 21.6372C34.7133 22.5211 34.6168 23.4939 34.803 24.4327C34.9891 25.3714 35.4495 26.2338 36.1258 26.9108C36.8022 27.5879 37.6642 28.0491 38.6027 28.2361C39.5413 28.4232 40.5142 28.3276 41.3984 27.9616C42.2827 27.5956 43.0385 26.9756 43.5703 26.1799C44.102 25.3843 44.3859 24.4488 44.3859 23.4918C44.3865 22.8567 44.2619 22.2277 44.0193 21.6408C43.7767 21.0539 43.4209 20.5206 42.972 20.0713C42.5232 19.622 41.9902 19.2656 41.4035 19.0225C40.8168 18.7793 40.188 18.6541 39.5529 18.6541V18.6541ZM39.5529 24.7718C39.2985 24.7727 39.0494 24.698 38.8374 24.5572C38.6254 24.4164 38.4601 24.2158 38.3622 23.9809C38.2644 23.7459 38.2386 23.4872 38.288 23.2376C38.3374 22.9879 38.4599 22.7586 38.6398 22.5786C38.8198 22.3987 39.0491 22.2762 39.2988 22.2268C39.5484 22.1774 39.8071 22.2032 40.042 22.3011C40.277 22.3989 40.4776 22.5643 40.6184 22.7763C40.7592 22.9882 40.8339 23.2373 40.8329 23.4918C40.8329 23.8312 40.6981 24.1568 40.458 24.3969C40.218 24.6369 39.8924 24.7718 39.5529 24.7718Z" fill="white"/>
<path d="M63.7224 18.7624C62.7667 18.7633 61.8328 19.0475 61.0386 19.5791C60.2444 20.1108 59.6257 20.8659 59.2607 21.7491C58.8956 22.6323 58.8005 23.6039 58.9876 24.541C59.1746 25.4782 59.6352 26.3389 60.3113 27.0144C60.9874 27.6898 61.8486 28.1496 62.7859 28.3357C63.7233 28.5218 64.6948 28.4258 65.5776 28.0599C66.4605 27.694 67.215 27.0745 67.7458 26.2799C68.2767 25.4852 68.56 24.551 68.56 23.5953C68.56 22.9602 68.4348 22.3314 68.1917 21.7447C67.9485 21.1581 67.5921 20.6251 67.1428 20.1762C66.6935 19.7274 66.1602 19.3715 65.5733 19.1289C64.9864 18.8863 64.3574 18.7617 63.7224 18.7624V18.7624ZM63.7224 24.88C63.4694 24.8791 63.2224 24.8032 63.0125 24.662C62.8026 24.5208 62.6393 24.3206 62.5432 24.0866C62.447 23.8526 62.4223 23.5954 62.4722 23.3474C62.5222 23.0994 62.6444 22.8718 62.8236 22.6933C63.0028 22.5147 63.2309 22.3933 63.4791 22.3443C63.7272 22.2953 63.9844 22.3209 64.218 22.4179C64.4516 22.5149 64.6512 22.679 64.7917 22.8894C64.9321 23.0998 65.0071 23.3471 65.0071 23.6C65.0064 23.7681 64.9727 23.9344 64.9078 24.0895C64.8429 24.2445 64.7481 24.3853 64.6288 24.5037C64.5095 24.6222 64.3681 24.7159 64.2125 24.7797C64.057 24.8434 63.8904 24.8759 63.7224 24.8753V24.88Z" fill="white"/>
<path d="M67.5576 5.93881L66.8659 17.487H70.8847L71.2329 10.0847L75.4776 10.1129L75.6941 5.93881H67.5576Z" fill="white"/>
<path d="M66.2447 5.93884H61.1906V3.57178H57.04L57.0353 5.93884H52.2118L51.9529 10.0894H54.1412L49.8024 17.4871H55.4259L58.64 10.9459L59.8165 17.4871H65.44L63.1153 10.0894H66L66.2447 5.93884Z" fill="white"/>
<path d="M86.5129 17.4871H90.6023L91.2941 5.92471H77.4871L77.2141 10.1694L86.9412 10.2541L86.5129 17.4871Z" fill="white"/>
<path d="M84.3906 23.0165H83.52L83.8024 16.1223H79.3506L79.0494 23.0165H72.9506L72.7388 27.0588H78.6918H84.3906H90.1694L90.3906 23.0165H84.3906Z" fill="white"/>
<path d="M15.5718 5.8353H11.6894L11.4871 9.20941H7.25177L7.45412 5.8353H3.58118L2.82353 18.4565H14.8235L15.5718 5.8353ZM11.2518 13.0965L11.1671 14.5882H6.93177L7.02589 13.1153L11.2518 13.0965Z" fill="white"/>
<path d="M17.2847 5.8353L16.5318 18.4565H20.4188L20.9224 9.98118H25.0824L25.2941 5.8353H17.2847Z" fill="white"/>
<path d="M14.7576 20.1412H10.7341L10.2447 28.3059H23.8353L24.0894 24.3294H14.5082L14.7576 20.1412Z" fill="white"/>
</svg>
