<svg viewBox="0 0 95 32" fill="none" xmlns="http://www.w3.org/2000/svg">
<path d="M26.9787 5.8353L26.7152 9.98118H28.9035L24.5693 17.3788H30.1929L33.4023 10.8424L34.5835 17.3788H40.207L37.8917 9.98118H40.687L41.007 5.8353H26.9787Z" fill="white"/>
<path d="M46.0185 9.98118H50.2444L50.4562 5.8353H42.3244L41.6279 17.3788H45.5809L46.0185 9.98118Z" fill="white"/>
<path d="M39.5533 18.6541C38.5963 18.6532 37.6605 18.9361 36.8644 19.4671C36.0682 19.9981 35.4474 20.7533 35.0805 21.6372C34.7137 22.5211 34.6172 23.4939 34.8033 24.4327C34.9894 25.3714 35.4498 26.2338 36.1262 26.9108C36.8026 27.5879 37.6645 28.0491 38.6031 28.2361C39.5416 28.4232 40.5145 28.3276 41.3988 27.9616C42.283 27.5956 43.0388 26.9756 43.5706 26.1799C44.1024 25.3843 44.3862 24.4488 44.3862 23.4918C44.3869 22.8567 44.2623 22.2277 44.0197 21.6408C43.7771 21.0539 43.4212 20.5206 42.9724 20.0713C42.5235 19.622 41.9905 19.2656 41.4039 19.0225C40.8172 18.7793 40.1884 18.6541 39.5533 18.6541ZM39.5533 24.7718C39.2988 24.7727 39.0498 24.698 38.8378 24.5572C38.6258 24.4164 38.4604 24.2158 38.3626 23.9809C38.2648 23.7459 38.2389 23.4872 38.2883 23.2376C38.3378 22.9879 38.4602 22.7586 38.6402 22.5786C38.8201 22.3987 39.0495 22.2762 39.2991 22.2268C39.5488 22.1774 39.8075 22.2032 40.0424 22.3011C40.2773 22.3989 40.4779 22.5643 40.6187 22.7763C40.7595 22.9882 40.8342 23.2373 40.8333 23.4918C40.8333 23.8312 40.6984 24.1568 40.4584 24.3969C40.2183 24.6369 39.8928 24.7718 39.5533 24.7718Z" fill="white"/>
<path d="M63.7228 18.7624C62.7671 18.7633 61.8332 19.0475 61.039 19.5791C60.2449 20.1108 59.6261 20.8659 59.2611 21.7491C58.896 22.6323 58.801 23.6039 58.988 24.541C59.175 25.4782 59.6356 26.3389 60.3117 27.0144C60.9878 27.6898 61.849 28.1496 62.7863 28.3357C63.7237 28.5218 64.6952 28.4258 65.578 28.0599C66.4609 27.694 67.2154 27.0745 67.7462 26.2799C68.2771 25.4852 68.5604 24.551 68.5604 23.5953C68.5604 22.9602 68.4352 22.3314 68.1921 21.7447C67.9489 21.1581 67.5925 20.6251 67.1432 20.1762C66.6939 19.7274 66.1606 19.3715 65.5737 19.1289C64.9868 18.8863 64.3578 18.7617 63.7228 18.7624ZM63.7228 24.88C63.4698 24.8791 63.2228 24.8032 63.0129 24.662C62.803 24.5208 62.6397 24.3206 62.5436 24.0866C62.4474 23.8526 62.4227 23.5954 62.4726 23.3474C62.5226 23.0994 62.6448 22.8718 62.824 22.6933C63.0032 22.5147 63.2313 22.3933 63.4795 22.3443C63.7276 22.2953 63.9848 22.3209 64.2184 22.4179C64.452 22.5149 64.6516 22.679 64.7921 22.8894C64.9325 23.0998 65.0075 23.3471 65.0075 23.6C65.0069 23.7681 64.9731 23.9344 64.9082 24.0895C64.8433 24.2445 64.7485 24.3853 64.6292 24.5037C64.5099 24.6222 64.3685 24.7159 64.213 24.7797C64.0574 24.8434 63.8909 24.8759 63.7228 24.8753V24.88Z" fill="white"/>
<path d="M67.558 5.93881L66.8662 17.487H70.885L71.2333 10.0847L75.478 10.1129L75.6945 5.93881H67.558Z" fill="white"/>
<path d="M66.2451 5.93884H61.191V3.57178H57.0404L57.0357 5.93884H52.2121L51.9533 10.0894H54.1416L49.8027 17.4871H55.4263L58.6404 10.9459L59.8169 17.4871H65.4404L63.1157 10.0894H66.0004L66.2451 5.93884Z" fill="white"/>
<path d="M86.5127 17.4871H90.6021L91.2939 5.92471H77.4868L77.2139 10.1694L86.9409 10.2541L86.5127 17.4871Z" fill="white"/>
<path d="M84.391 23.0165H83.5204L83.8028 16.1223H79.351L79.0498 23.0165H72.951L72.7393 27.0588H78.6922H84.391H90.1698L90.391 23.0165H84.391Z" fill="white"/>
<path d="M15.5715 5.8353H11.6891L11.4868 9.20941H7.25148L7.45383 5.8353H3.58089L2.82324 18.4565H14.8232L15.5715 5.8353ZM11.2515 13.0965L11.1668 14.5882H6.93148L7.0256 13.1153L11.2515 13.0965Z" fill="white"/>
<path d="M17.2852 5.8353L16.5322 18.4565H20.4193L20.9228 9.98118H25.0828L25.2946 5.8353H17.2852Z" fill="white"/>
<path d="M14.7581 20.1412H10.7345L10.2451 28.3059H23.8357L24.0898 24.3294H14.5086L14.7581 20.1412Z" fill="white"/>
</svg>
