<svg width="90" height="20" viewBox="0 0 71 20" fill="none" xmlns="http://www.w3.org/2000/svg">
<path d="M12.2902 11.1879L9.39683 1.88184L5.41521 1.90812L0 11.1879H4.4996L7.06855 5.93022L8.01033 11.1879H12.2902Z" fill="currentColor"/>
<path d="M48.638 12.2129C46.5033 12.2129 44.7715 13.9532 44.7715 16.0983C44.7715 18.2434 46.5033 19.9837 48.638 19.9837C50.7727 19.9837 52.5045 18.2434 52.5045 16.0983C52.5045 13.9532 50.7727 12.2129 48.638 12.2129ZM48.638 17.1288C48.0729 17.1288 47.6125 16.6661 47.6125 16.0983C47.6125 15.5305 48.0729 15.0678 48.638 15.0678C49.2031 15.0678 49.6635 15.5305 49.6635 16.0983C49.6635 16.6661 49.2031 17.1288 48.638 17.1288Z" fill="currentColor"/>
<path d="M58.2118 1.90332H51.703L51.1484 11.1883H54.3662L54.6435 5.23666L58.0443 5.26295L58.2118 1.90332Z" fill="currentColor"/>
<path d="M50.008 11.1883L48.1506 5.24187H50.4579L50.6515 1.90327H46.6123V0L43.29 0.0368036L43.2847 1.90327H39.4287L39.2194 5.24187H40.9722L37.498 11.1883H41.9976L44.5718 5.93062L45.5136 11.1883H50.008Z" fill="currentColor"/>
<path d="M59.6504 1.89258L59.4307 5.31004L67.2108 5.37313L66.8707 11.1881H70.1408L70.6954 1.89258H59.6504Z" fill="currentColor"/>
<path d="M64.475 15.6363L64.7 10.0947H61.1369L60.9015 15.6363H56.02L55.8525 18.8855H60.6137H65.1761H69.7961L69.9739 15.6363H65.1761H64.475Z" fill="currentColor"/>
<path d="M17.061 4.86818H16.4017L16.5744 1.88184H13.2939L12.7393 11.1879H16.0459L16.2186 8.20152H16.8621L16.6843 11.1879H19.3526L19.8758 1.88184H17.2389L17.061 4.86818Z" fill="currentColor"/>
<path d="M7.71191 20.0001H16.8838L17.3233 12.6973H8.16187L7.71191 20.0001ZM11.3587 15.3103H13.9695L13.8021 17.4554H11.186L11.3587 15.3103Z" fill="currentColor"/>
<path d="M20.8604 11.188H36.0125L36.1537 8.49609H21.0016L20.8604 11.188Z" fill="currentColor"/>
<path d="M34.7206 4.77926H32.79L32.858 3.58051H34.8462L34.9979 0.930664H22.9223L22.7705 3.58051H24.5024L24.4396 4.77926H22.645L22.4775 7.81817H34.5532L34.7206 4.77926ZM29.6089 4.77926H27.3591L27.4219 3.58051H29.6769L29.6089 4.77926Z" fill="currentColor"/>
<path d="M22.1885 13.9953H30.9366L30.8999 14.5684H22.1624L21.8223 19.989H33.4794L33.652 17.3182H25.4324L25.4743 16.6452H33.6886L33.9764 11.9238H22.3298L22.1885 13.9953Z" fill="currentColor"/>
</svg>